<svg xmlns="http://www.w3.org/2000/svg" viewBox="0 0 640 640">
    <defs><style>.a{fill:none;stroke:#000;stroke-miterlimit:10;}</style></defs>
    <path class="a" d="M196.82,337.41c-4.09-6.07-19.57-7-26.87-4.89s-7.3,13-6.82,24.45c.53,12.95-.08,18.5,7.57,26.48s22,5.31,25.3-3.82c1.31-3.64,3-13.94,3.39-23.67C199.68,348.21,199.11,340.82,196.82,337.41Z"/><path class="a" d="M163.17,338.78c-.31-5.1,1.3-13.19-7-16.51-7.81-3.13-22.89-2-27.1,4.54-3.74,5.78-3.07,26,2.33,35.91,4.16,7.65,13.74,14.14,22.28,11.15C162.89,370.63,163.61,346,163.17,338.78Z"/><path class="a" d="M124.73,318.31c-3.52-7.4-10.14-6-17.29-4.8s-8.89,8.87-8.64,18c.25,9.46,6.43,17.82,10,20.7s15.42,6.24,17.41-8.45C127.7,332.5,127.8,324.78,124.73,318.31Z"/><path class="a" d="M210.45,339.89c-6.7,1.08-10.11,4.58-10.86,12.34a169.45,169.45,0,0,0,.13,27.73c.83,8.54,10.37,19.58,22.46,19.58,10.58,0,13.7-10.54,15-18.64,1.31-7.8,1.67-19.06,1.67-26.6S235,342.41,229,341.11,217.13,338.81,210.45,339.89Z"/><path class="a" d="M246,343c-7.45,3.21-7,8.11-7,15.21s0,16.89.69,24,7.75,22.41,19.15,22.41c10.29,0,16.72-11.53,18-19.62a171.58,171.58,0,0,0,1.76-25.27c0-7.54-.09-12.49-5.57-14.77C266.58,342.25,252.58,340.1,246,343Z"/><path class="a" d="M289,346.34c-6.91,1.08-9.5,7.64-9.73,15.84-.2,6.84.78,19,1.4,25.56.67,7.09,10.08,21.7,20.31,21.7,9.17,0,16.47-10.24,17.87-18.33,1.35-7.8,1.13-19.06,1.13-26.6s-.18-13.8-5.92-16.8C308.49,344.8,295.9,345.27,289,346.34Z"/><path class="a" d="M221.84,255.65c-12.42,0-22,17.07-22,32.14,0,13.75-.5,21.18-.43,29.26.1,11.2,4.09,17.41,12.9,20,8.48,2.51,19.23,4.92,27.66,2.54,7.33-2.08,11.08-6.15,11.08-19.67,0-12.08.22-17.85.22-29.93C251.32,273.36,238,255.65,221.84,255.65Z"/><path class="a" d="M175.5,253.54c-11.91-3.48-21.83,3.77-21.83,19.18,0,13.74.82,26.2,1.66,34.14,1,9.66,1.24,17.8,14.63,22.72,5.25,1.93,8.17,2.05,16.42,1.44,9.08-.66,11.56-5,12.25-13.58.75-9.31,1.65-25.11,0-37.07C196.4,264.18,189.71,257.69,175.5,253.54Z"/><path class="a" d="M128.83,254.89c-10-2-13.85,8.27-13.35,20.6.46,11.51,1.56,21.71,3.18,28,2,7.94,4,13.32,10.16,15.51,4.31,1.54,7.72,2.25,14.44,1.36,6.18-.82,10.4-2.89,11-9.88A135,135,0,0,0,153,283C151.14,269.77,144.69,258.08,128.83,254.89Z"/><path class="a" d="M104.55,263.43c-9.45,0-12.45,10.83-12.07,20.26.36,8.81,0,18.46,6.3,25.38,2.36,2.58,6,4.17,11.16,3.49,4.73-.62,8.48-4.93,7.37-16C116.09,284.52,115.44,263.43,104.55,263.43Z"/><path class="a" d="M286.62,254.65c-15.55,0-35.3,14.74-35.3,36.58,0,13.74-.22,26.71-.22,30.15,0,9,4.92,19.32,14.49,21.4,10.69,2.33,27.24,4.6,36.55,2.44,8.56-2,17.69-4.66,17.69-18.18,0-12.08.17-22.4.17-34.48C320,275.91,307.63,254.65,286.62,254.65Z"/><path class="a" d="M547.63,278.15c12.86-12.86,21.28-39.46,29.71-58.09s20.39-53.2-2.22-53.2-48.33,34.58-70.05,34.58-51-41.68-86.46-41.68-75.55,35-98.61,35-63.13-35-98.61-35-64.73,41.68-86.46,41.68-47.44-34.58-70.05-34.58-10.64,34.58-2.22,53.2,16.85,45.23,29.71,58.09"/><path class="a" d="M539.64,319.48c12.94,12.95,29.27,32.27,29.27,53.11s-8.86,42.12-25.71,59-61.23,41-79.81,47.57c-18.85,6.65-60.19,7.29-79.81,3-19.95-4.39-48.57-5.77-63.75-5.77s-43.46,1.38-63.41,5.77c-19.62,4.31-61,3.67-79.81-3-18.58-6.55-63-30.72-79.81-47.57s-25.71-38.13-25.71-59,16.33-40.16,29.27-53.11"/><path class="a" d="M443.18,337.41c4.09-6.07,19.57-7,26.87-4.89s7.3,13,6.82,24.45c-.53,12.95.08,18.5-7.57,26.48s-22,5.31-25.3-3.82c-1.31-3.64-3-13.94-3.39-23.67C440.32,348.21,440.89,340.82,443.18,337.41Z"/><path class="a" d="M476.83,338.78c.31-5.1-1.3-13.19,7-16.51,7.81-3.13,22.89-2,27.1,4.54,3.74,5.78,3.07,26-2.33,35.91-4.16,7.65-13.74,14.14-22.28,11.15C477.11,370.63,476.39,346,476.83,338.78Z"/><path class="a" d="M515.27,318.31c3.52-7.4,10.14-6,17.29-4.8s8.89,8.87,8.64,18c-.25,9.46-6.43,17.82-10,20.7s-15.42,6.24-17.41-8.45C512.3,332.5,512.2,324.78,515.27,318.31Z"/><path class="a" d="M429.55,339.89c6.7,1.08,10.11,4.58,10.86,12.34a169.45,169.45,0,0,1-.13,27.73c-.83,8.54-10.37,19.58-22.46,19.58-10.58,0-13.7-10.54-15.05-18.64-1.31-7.8-1.67-19.06-1.67-26.6S405,342.41,411,341.11,422.87,338.81,429.55,339.89Z"/><path class="a" d="M394.05,343c7.45,3.21,7.05,8.11,7.05,15.21s-.05,16.89-.69,24-7.75,22.41-19.15,22.41c-10.29,0-16.72-11.53-18-19.62a171.58,171.58,0,0,1-1.76-25.27c0-7.54.09-12.49,5.57-14.77C373.42,342.25,387.42,340.1,394.05,343Z"/><path class="a" d="M351,346.34c6.91,1.08,9.5,7.64,9.73,15.84.2,6.84-.78,19-1.4,25.56-.67,7.09-10.08,21.7-20.31,21.7-9.17,0-16.47-10.24-17.87-18.33-1.35-7.8-1.13-19.06-1.13-26.6s.18-13.8,5.92-16.8C331.51,344.8,344.1,345.27,351,346.34Z"/><path class="a" d="M418.16,255.65c12.42,0,21.95,17.07,21.95,32.14,0,13.75.5,21.18.43,29.26-.1,11.2-4.09,17.41-12.9,20-8.48,2.51-19.23,4.92-27.66,2.54-7.33-2.08-11.08-6.15-11.08-19.67,0-12.08-.22-17.85-.22-29.93C388.68,273.36,402,255.65,418.16,255.65Z"/><path class="a" d="M464.5,253.54c11.91-3.48,21.83,3.77,21.83,19.18,0,13.74-.82,26.2-1.66,34.14-1,9.66-1.24,17.8-14.63,22.72-5.25,1.93-8.17,2.05-16.42,1.44-9.08-.66-11.56-5-12.25-13.58-.75-9.31-1.65-25.11,0-37.07C443.6,264.18,450.29,257.69,464.5,253.54Z"/><path class="a" d="M511.17,254.89c10-2,13.85,8.27,13.35,20.6-.46,11.51-1.56,21.71-3.18,28-2,7.94-4.05,13.32-10.16,15.51-4.31,1.54-7.72,2.25-14.44,1.36-6.18-.82-10.4-2.89-11-9.88A135,135,0,0,1,487,283C488.86,269.77,495.31,258.08,511.17,254.89Z"/><path class="a" d="M535.45,263.43c9.45,0,12.45,10.83,12.07,20.26-.36,8.81,0,18.46-6.3,25.38-2.36,2.58-6,4.17-11.16,3.49-4.73-.62-8.48-4.93-7.37-16C523.91,284.52,524.56,263.43,535.45,263.43Z"/><path class="a" d="M353.38,254.65c15.55,0,35.3,14.74,35.3,36.58,0,13.74.22,26.71.22,30.15,0,9-4.92,19.32-14.49,21.4-10.69,2.33-27.24,4.6-36.55,2.44-8.56-2-17.69-4.66-17.69-18.18,0-12.08-.17-22.4-.17-34.48C320,275.91,332.37,254.65,353.38,254.65Z"/>
</svg>