<svg xmlns="http://www.w3.org/2000/svg" viewBox="0 0 640 640">
    <defs><style>.a{fill:none;stroke:#000;stroke-miterlimit:10;}</style></defs>
    <path class="a" d="M268.5,267.69C249,267.69,238,245,234,230.33s-9-28.53-7.2-49.1c2.21-24.83,20-39.07,42.56-33.92,19,4.32,19.95,17.29,31.26,17.29s21.91-26.37,52.59-16.22c28.88,9.57,28.72,41.33,21.23,76.08-6.31,29.33-15.07,43.23-32.58,43.23Z"/><path class="a" d="M417.47,267.69c-19.51,0-27.86-15.14-31.85-29.77s-8.89-36.41-5.72-56.83c3.55-22.81,12.86-32.8,30.05-35,21.06-2.73,30.52,17,41.81,17.55,13.5.66,19.78-25.42,50.59-15.22,22.85,7.57,26,39.28,17.11,75-7.23,29.12-14,44.34-31.47,44.34Z"/><path class="a" d="M178.17,267.69c-13.75,0-35.36-.45-44.23-30.6s-5.87-66.76,11.21-77.54c15-9.49,38.45-9.36,60.62,11,21.28,19.58,21.61,35,20.67,59.86S213.19,267.69,178.17,267.69Z"/><path class="a" d="M426,320.08h51c12,0,23.94,15.47,26.6,35.42s7.3,72.55,4.57,97.64c-2.88,26.53-13.43,63.31-28,68.43-6.51,2.29-8.23-51.24-6.87-64.53,1.33-13,3.67-39.24-20.47-39.24-24.74,0-19.79,34.12-19.12,44.3.77,11.67,4,60.12-6.29,60.12-11.75,0-29.6-46.74-31.4-70.17s-1.11-72.23,1.14-92.45C399.18,341.65,404.83,320.08,426,320.08Z"/><path class="a" d="M180.37,330.23c-13,0-20.9,6.92-26.62,18.66-6.36,13,.36,97.73,7.78,117.46,17.17,45.67,29.26,36.36,37.24-9.75,4.46-25.8,8.87-94,4.88-107.3S192.34,330.23,180.37,330.23Z"/><path class="a" d="M110.21,371.58c7.32,0,17.28-3.38,28.92,7,10,8.9,24.28,11.63,39.29,11.63,16.92,0,27.31-13.28,45.55-14.63,22.9-1.7,48.92,14.65,76.48,14.65s54.05-18.27,76.39-18.27,43.22,14.6,76.54,14.6c32.59,0,50.76-15.94,69.11-16.62s17.68,0,24.33,0"/><polyline class="a" points="330.52 335.65 304.02 362.5 277.52 335.65"/><line class="a" x1="304.02" y1="362.5" x2="304.02" y2="285.5"/>
</svg>