<svg xmlns="http://www.w3.org/2000/svg" viewBox="0 0 640 640">
    <defs><style>.a{fill:none;stroke:#000;}</style></defs>
    <path class="a" d="M216.84,424.05c-9.27-1.49-19.61,0-25.81-5.15-9.38-7.72-13.52-22.35-13.11-47.64.62-39.09,3.42-157.39,86.34-154.87S347,338.23,347,376.41s-7,52.33-32.22,56c-7.55,1.09-19-5.37-30.47-5.4C273,427,262,433.26,249,432.23,236.36,431.24,226.54,425.61,216.84,424.05Z"/>
    <path class="a" d="M216.84,424.06c-9.27-1.5-19.61,0-25.81-5.16-9.38-7.72-13.52-22.34-13.11-47.63.62-39.1,3.32-132.17,86.25-129.65S347,338.23,347,376.42s-7,52.33-32.22,56c-7.55,1.09-19-5.36-30.47-5.4C273,427,262,433.26,249,432.23,236.36,431.24,226.54,425.62,216.84,424.06Z"/>
    <path class="a" d="M382.49,265.1c-.82-25.57,12.81-84.76,45-43.33s27.9,57.25,21.9,97S434,443.22,410,425.36,383.31,290.68,382.49,265.1Z"/>
    <path class="a" d="M382.49,265.1a112.45,112.45,0,0,1,2.26-23.86C389.41,217,401.08,353.9,401.08,353.9S418.9,432,410,425.36C386.07,407.5,383.31,290.68,382.49,265.1Z"/>
</svg>