<svg xmlns="http://www.w3.org/2000/svg" viewBox="0 0 640 640">
    <defs><style>.a{fill:none;stroke:#000;stroke-miterlimit:10;}</style></defs>
    <rect class="a" x="325.48" y="269.43" width="62.03" height="220.55" rx="5.14" transform="translate(-164.08 363.29) rotate(-45)"/><rect class="a" x="248.07" y="260.31" width="26.58" height="48.52" transform="translate(-124.67 268.16) rotate(-45)"/><rect class="a" x="249.76" y="210.05" width="22.15" height="6.62" transform="translate(-74.47 246.93) rotate(-45)"/><polygon class="a" points="245.32 213.51 260.77 228.96 259.64 251.98 223.16 288.46 185.73 251.03 222.21 214.56 245.32 213.51"/><polygon class="a" points="276.62 175.97 298.36 197.72 282.7 209.75 272.46 209.31 264.98 201.84 264.58 191.63 276.62 175.97"/><polygon class="a" points="290.22 162.52 311.95 184.26 296.66 196.01 278.45 177.81 290.22 162.52"/><line class="a" x1="293.74" y1="166.04" x2="283.1" y2="179.36"/><line class="a" x1="297.58" y1="169.89" x2="286.49" y2="182.32"/><line class="a" x1="301.5" y1="173.41" x2="289.91" y2="185.67"/><line class="a" x1="305" y1="177.04" x2="292.85" y2="188.51"/><line class="a" x1="308.64" y1="180.67" x2="295.72" y2="191.38"/>
</svg>