<svg xmlns="http://www.w3.org/2000/svg" viewBox="0 0 640 640">
<defs><style>.a{fill:none;stroke:#000;stroke-miterlimit:10;}</style></defs>
<path class="a" d="M275.13,234.46c24.35-6,27.45,13.3,43.89,13.3,17.31,0,15.82-19.43,47.89-12.64,35.67,7.56,23.93,55.08,19.62,72.16-4.84,19.16-10.22,23.57-11.22,45.52C374.51,370.41,365,397.74,352,405c-10.08,5.65-11.4-12.32-10-25.61,1.33-13-3.34-30.61-20.34-31.29-17.85,1.36-20.61,21-18.51,31,2.79,13.29-.46,30.32-10.31,27.27-9.64-3-25.82-33.44-27.39-52.62-1.88-22.88-9.8-32.2-14-49.33C245.94,282.31,243.65,242.23,275.13,234.46Z"/><rect class="a" x="125.39" y="170.48" width="389.22" height="280.11" rx="28.86"/><line class="a" x1="157.51" y1="210.57" x2="211.38" y2="210.57"/><line class="a" x1="157.51" y1="222.93" x2="193.47" y2="222.93"/><line class="a" x1="157.51" y1="234.29" x2="205.28" y2="234.29"/><line class="a" x1="427.09" y1="390.86" x2="474.86" y2="390.86"/><line class="a" x1="427.09" y1="403.22" x2="474.86" y2="403.22"/><line class="a" x1="427.09" y1="414.58" x2="474.86" y2="414.58"/>
</svg>