<svg xmlns="http://www.w3.org/2000/svg" width="571.884" height="228.375" viewBox="0 0 571.884 228.375">
  <g transform="translate(0.51 0.5)">
    <path id="Path_72" data-name="Path 72" d="M-6874.479,5874.69c-12.518-.4-20.775-18.611-20.775-29.266s3.827-22.391,14.592-25.2,15.533-2.711,22.447,5.635,5.389,16.134,3.235,26.308S-6861.96,5875.092-6874.479,5874.69Z" transform="translate(7419.561 -5750.14)" fill="#fff" stroke="#919191" stroke-width="1"/>
    <path id="Path_134" data-name="Path 134" d="M-6873.943,5874.69c12.518-.4,20.776-18.611,20.776-29.266s-3.827-22.391-14.593-25.2-15.532-2.711-22.446,5.635-5.388,16.134-3.235,26.308S-6886.462,5875.092-6873.943,5874.69Z" transform="translate(6901.26 -5750.14)" fill="#fff" stroke="#919191" stroke-width="1"/>
    <path id="Path_73" data-name="Path 73" d="M-6869.6,5889.523c-15.237.519-25.651-20.861-25.651-34.717s5.439-32.01,18.48-35.667,20.654-2.99,28.045,6.5,8.913,18.968,6.113,33.155S-6854.366,5889-6869.6,5889.523Z" transform="translate(7381.16 -5734.039)" fill="#fff" stroke="#919191" stroke-width="1"/>
    <path id="Path_135" data-name="Path 135" d="M-6866.954,5889.523c15.237.519,25.651-20.861,25.651-34.717s-5.439-32.01-18.48-35.667-20.655-2.99-28.046,6.5-8.913,18.968-6.114,33.155S-6882.191,5889-6866.954,5889.523Z" transform="translate(6927.798 -5734.039)" fill="#fff" stroke="#919191" stroke-width="1"/>
    <path id="Path_77" data-name="Path 77" d="M-6869.585,5894.515c-11.916.334-27.1-14.265-27.85-37.064s1.293-25.419,12.8-37.78,22.565-9.972,31.781,0,12.864,20.191,10.957,37.78S-6857.669,5894.179-6869.585,5894.515Z" transform="translate(7341.517 -5711.041)" fill="#fff" stroke="#919191" stroke-width="1"/>
    <path id="Path_136" data-name="Path 136" d="M-6869.392,5894.515c11.915.334,27.1-14.265,27.849-37.064s-1.292-25.419-12.8-37.78-22.564-9.972-31.78,0-12.864,20.191-10.957,37.78S-6881.308,5894.179-6869.392,5894.515Z" transform="translate(6968.325 -5711.041)" fill="#fff" stroke="#919191" stroke-width="1"/>
    <path id="Path_123" data-name="Path 123" d="M-6865.585,5803.5c-12.041.08-23.938,25.693-24.991,42.961s1.341,19.662,6.648,26.7,12.751,7.119,20.771,3.468,17.821-22.222,16.621-38.065S-6853.544,5803.422-6865.585,5803.5Z" transform="translate(7417.298 -5803.502)" fill="#fff" stroke="#919191" stroke-width="1"/>
    <path id="Path_138" data-name="Path 138" d="M-6871.668,5803.5c12.039.08,23.938,25.693,24.99,42.961s-1.341,19.662-6.647,26.7-12.753,7.119-20.771,3.468-17.821-22.222-16.622-38.065S-6883.71,5803.422-6871.668,5803.5Z" transform="translate(6890.819 -5803.502)" fill="#fff" stroke="#919191" stroke-width="1"/>
    <path id="Path_124" data-name="Path 124" d="M-6863.7,5803.5c-12.939.1-25.725,31.887-26.856,53.317s1.441,24.4,7.146,33.142,13.7,8.837,22.321,4.3,19.151-27.58,17.861-47.244S-6850.761,5803.4-6863.7,5803.5Z" transform="translate(7383.263 -5797)" fill="#fff" stroke="#919191" stroke-width="1"/>
    <path id="Path_137" data-name="Path 137" d="M-6870.238,5803.5c12.938.1,25.725,31.887,26.856,53.317s-1.442,24.4-7.146,33.142-13.7,8.837-22.322,4.3-19.152-27.58-17.862-47.244S-6883.179,5803.4-6870.238,5803.5Z" transform="translate(6921.542 -5797)" fill="#fff" stroke="#919191" stroke-width="1"/>
    <path id="Path_78" data-name="Path 78" d="M-6868.786,5900.482c-11.916.351-27.593-15.346-28.339-39.153s-4.548-33.582,9.536-44.219,28.146-9.806,40.048-3.732,9.6,29.583,7.7,47.951S-6856.87,5900.132-6868.786,5900.482Z" transform="translate(7293.588 -5699.215)" fill="#fff" stroke="#919191" stroke-width="1"/>
    <path id="Path_129" data-name="Path 129" d="M-6867.666,5900.482c11.915.351,27.595-15.346,28.339-39.153s4.549-33.582-9.536-44.219-28.146-9.806-40.047-3.732-9.6,29.583-7.7,47.951S-6879.581,5900.132-6867.666,5900.482Z" transform="translate(7013.727 -5699.215)" fill="#fff" stroke="#919191" stroke-width="1"/>
    <path id="Path_125" data-name="Path 125" d="M-6861.124,5807.11c-14.857-1.355-31.8,24.033-33.422,51.15s-.133,36.748,9.632,44.622,21.225,13.536,31.292,8.225,26.263-32.757,24.176-60.342S-6846.266,5808.465-6861.124,5807.11Z" transform="translate(7330.515 -5792.378)" fill="#fff" stroke="#919191" stroke-width="1"/>
    <path id="Path_133" data-name="Path 133" d="M-6863.249,5807.11c14.857-1.355,31.8,24.033,33.421,51.15s.133,36.748-9.63,44.622-21.226,13.536-31.294,8.225-26.263-32.757-24.174-60.342S-6878.107,5808.465-6863.249,5807.11Z" transform="translate(6964.721 -5792.378)" fill="#fff" stroke="#919191" stroke-width="1"/>
    <path id="Path_80" data-name="Path 80" d="M-6867.629,5902.2c-12.4.347-28.884-10.835-29.971-42.745s-1.824-39.011,10.44-43.669,30-7.437,41.674-3.7,8.207,35.422,6.223,53.631S-6855.231,5901.853-6867.629,5902.2Z" transform="translate(7241.362 -5684.253)" fill="#fff" stroke="#919191" stroke-width="1"/>
    <path id="Path_130" data-name="Path 130" d="M-6867.723,5902.2c12.4.347,28.883-10.835,29.97-42.745s1.824-39.011-10.44-43.669-30-7.437-41.672-3.7-8.208,35.422-6.225,53.631S-6880.123,5901.853-6867.723,5902.2Z" transform="translate(7064.855 -5684.253)" fill="#fff" stroke="#919191" stroke-width="1"/>
    <path id="Path_126" data-name="Path 126" d="M-6859.948,5808.916c-14.851.132-32.647,23.66-34.245,54.076s-5.7,43.655,8.908,51.561,38.451,5.958,48.345,0,9.433-42.922,6.713-59.968S-6845.1,5808.784-6859.948,5808.916Z" transform="translate(7271.689 -5786.776)" fill="#fff" stroke="#919191" stroke-width="1"/>
    <path id="Path_131" data-name="Path 131" d="M-6864.558,5808.916c14.851.132,32.648,23.66,34.244,54.076s5.7,43.655-8.907,51.561-38.45,5.958-48.344,0-9.436-42.922-6.714-59.968S-6879.409,5808.784-6864.558,5808.916Z" transform="translate(7023.682 -5786.776)" fill="#fff" stroke="#919191" stroke-width="1"/>
    <path id="Path_86" data-name="Path 86" d="M-6871.021,5901.712c-15.491-.826-24.977-12.533-24.978-46.135s-2.765-41.476,10.007-42.922,28.8-2.375,40.639,0,11.524,29.771,8.328,53.139S-6855.527,5902.538-6871.021,5901.712Z" transform="translate(7181.96 -5674.379)" fill="#fff" stroke="#919191" stroke-width="1"/>
    <path id="Path_128" data-name="Path 128" d="M-6860.355,5901.712c15.493-.826,24.977-12.533,24.979-46.135s2.766-41.476-10.007-42.922-28.8-2.375-40.638,0-11.525,29.771-8.329,53.139S-6875.848,5902.538-6860.355,5901.712Z" transform="translate(7120.279 -5674.379)" fill="#fff" stroke="#919191" stroke-width="1"/>
    <path id="Path_127" data-name="Path 127" d="M-6848.159,5809.145c-20.689.683-48.078,12.223-49.458,60.1s-2.618,58.287,18.032,61.831,49.762,4.664,63.539-4.513,14.129-46.857,9.761-69.457S-6827.471,5808.463-6848.159,5809.145Z" transform="translate(7184.421 -5786.657)" fill="#fff" stroke="#919191" stroke-width="1"/>
    <path id="Path_132" data-name="Path 132" d="M-6853.786,5809.145c20.688.683,48.077,12.223,49.456,60.1s.58,58.729-18.029,61.831-49.764,4.664-63.541-4.513-14.129-46.857-9.761-69.457S-6874.476,5808.463-6853.786,5809.145Z" transform="translate(7089.927 -5786.657)" fill="#fff" stroke="#919191" stroke-width="1"/>
  </g>
</svg>
