<!-- <?xml version="1.0" encoding="utf-8"?> -->
<!-- Generator: Adobe Illustrator 25.2.3, SVG Export Plug-In . SVG Version: 6.00 Build 0)  -->
<!-- <svg version="1.1" id="Layer_1" xmlns="http://www.w3.org/2000/svg" xmlns:xlink="http://www.w3.org/1999/xlink" x="0px" y="0px"
	 viewBox="0 0 571.9 228.4" style="enable-background:new 0 0 571.9 228.4;" xml:space="preserve"> -->
<svg xmlns="http://www.w3.org/2000/svg" width="571.884" height="228.375" viewBox="0 0 571.884 228.375">
	<style type="text/css">
		.st0{fill:#FFFFFF;stroke:#919191;}
		.st1{fill:none;stroke:#6E6E6E;stroke-dasharray:3.9645,3.9645;}
		.st2{fill:none;stroke:#6E6E6E;stroke-dasharray:3.9803,3.9803;}
		.st3{fill:none;stroke:#6E6E6E;stroke-dasharray:4.0515,4.0515;}
		.st4{fill:none;stroke:#919191;}
	</style>
	<path id="Path_72_1_" class="st0" d="M545.6,125c-12.5-0.4-20.8-18.6-20.8-29.3s3.8-22.4,14.6-25.2s15.5-2.7,22.4,5.6 s5.4,16.1,3.2,26.3S558.1,125.5,545.6,125z"/>
	<path id="Path_134_1_" class="st0" d="M27.8,125c12.5-0.4,20.8-18.6,20.8-29.3S44.8,73.4,34,70.6s-15.5-2.7-22.4,5.6 s-5.4,16.1-3.2,26.3S15.3,125.5,27.8,125z"/>
	<path id="Path_73_1_" class="st0" d="M512.1,156c-15.2,0.5-25.7-20.9-25.7-34.7s5.4-32,18.5-35.7s20.7-3,28,6.5s8.9,19,6.1,33.2 S527.3,155.5,512.1,156z"/>
	<path id="Path_135_1_" class="st0" d="M61.4,156c15.2,0.5,25.7-20.9,25.7-34.7s-5.4-32-18.5-35.7s-20.7-3-28,6.5s-8.9,19-6.1,33.2 S46.1,155.5,61.4,156z"/>
	<path id="Path_77_1_" class="st0" d="M472.4,184c-11.9,0.3-27.1-14.3-27.9-37.1s1.3-25.4,12.8-37.8s22.6-10,31.8,0 s12.9,20.2,11,37.8S484.4,183.6,472.4,184z"/>
	<path id="Path_136_1_" class="st0" d="M99.4,184c11.9,0.3,27.1-14.3,27.8-37.1c0.7-22.8-1.3-25.4-12.8-37.8s-22.6-10-31.8,0 s-12.9,20.2-11,37.8S87.5,183.6,99.4,184z"/>
	<path id="Path_123_1_" class="st0" d="M552.2,0.5c-12,0.1-23.9,25.7-25,43s1.3,19.7,6.6,26.7s12.8,7.1,20.8,3.5s17.8-22.2,16.6-38.1 S564.3,0.4,552.2,0.5z"/>
	<path id="Path_138_1_" class="st0" d="M19.7,0.5c12,0.1,23.9,25.7,25,43S43.3,63.1,38,70.2s-12.8,7.1-20.8,3.5S-0.6,51.4,0.6,35.6 S7.6,0.4,19.7,0.5z"/>
	<path id="Path_124_1_" class="st0" d="M520.1,7c-12.9,0.1-25.7,31.9-26.9,53.3s1.4,24.4,7.1,33.1s13.7,8.8,22.3,4.3 s19.2-27.6,17.9-47.2S533,6.9,520.1,7z"/>
	<path id="Path_137_1_" class="st0" d="M51.8,7c12.9,0.1,25.7,31.9,26.9,53.3s-1.4,24.4-7.1,33.1s-13.7,8.8-22.3,4.3 S30.1,70.2,31.3,50.5C32.6,30.9,38.9,6.9,51.8,7z"/>
	<path id="Path_78_1_" class="st0" d="M425.3,201.8c-11.9,0.4-27.6-15.3-28.3-39.2s-4.5-33.6,9.5-44.2s28.1-9.8,40-3.7 s9.6,29.6,7.7,48S437.2,201.4,425.3,201.8z"/>
	<path id="Path_125_1_" class="st0" d="M469.9,15.2c-14.9-1.4-31.8,24-33.4,51.1s-0.1,36.7,9.6,44.6s21.2,13.5,31.3,8.2 s26.3-32.8,24.2-60.3S484.8,16.6,469.9,15.2z"/>
	<path id="Path_133_1_" class="st0" d="M102,15.2c14.9-1.4,31.8,24,33.4,51.1s0.1,36.7-9.6,44.6s-21.2,13.5-31.3,8.2 S68.2,86.5,70.3,58.9S87.1,16.6,102,15.2z"/>
	<path id="Path_80_1_" class="st0" d="M374.2,218.4c-12.4,0.3-28.9-10.8-30-42.7s-1.8-39,10.4-43.7s30-7.4,41.7-3.7 s8.2,35.4,6.2,53.6S386.6,218.1,374.2,218.4z"/>
	<path id="Path_126_1_" class="st0" d="M412.3,22.6c-14.9,0.1-32.6,23.7-34.2,54.1s-5.7,43.7,8.9,51.6s38.5,6,48.3,0s9.4-42.9,6.7-60 S427.1,22.5,412.3,22.6z"/>
	<path id="Path_131_1_" class="st0" d="M159.6,22.6c14.9,0.1,32.6,23.7,34.2,54.1s5.7,43.7-8.9,51.6s-38.5,6-48.3,0s-9.4-42.9-6.7-60 C132.6,51.3,144.8,22.5,159.6,22.6z"/>
	<path id="Path_86_1_" class="st0" d="M311.4,227.8c-15.5-0.8-25-12.5-25-46.1s-2.8-41.5,10-42.9s28.8-2.4,40.6,0s11.5,29.8,8.3,53.1 S326.9,228.7,311.4,227.8z"/>
	<path id="Path_127_1_" class="st0" d="M336.8,23c-20.7,0.7-48.1,12.2-49.5,60.1s-2.6,58.3,18,61.8s49.8,4.7,63.5-4.5 s14.1-46.9,9.8-69.5S357.5,22.3,336.8,23z"/>
	<path id="Path_132_1_" class="st0" d="M236.7,23c20.7,0.7,48.1,12.2,49.5,60.1s0.6,58.7-18,61.8s-49.8,4.7-63.5-4.5 s-14.1-46.9-9.8-69.5S216,22.3,236.7,23z"/>
	<path id="Path_129_2_" class="st0" d="M146.5,202.4c10.3,0.3,27.4-16.9,28.1-34.7c0.6-17.8-3.7-21.5-12.9-27.5 c-6.9-4.5-17.1-5.7-26.2,0.8c-8.2,5.9-13.5,17-13.2,31.5C122.6,186.3,136.2,202.1,146.5,202.4z"/>
	<path id="Path_128_2_" class="st0" d="M260.4,228.4c15.5-0.8,25.3-12.7,25-46.3c-0.1-11.7-9.9-19.2-19.2-21.4 c-9.3-2.1-13.4-2-20,0.4c-11.3,4.2-21.1,16.6-19.8,31.1C228.5,215.8,244.9,229.2,260.4,228.4z"/>
	<path class="st1" d="M146.6,202.1c11.9,0.4,27.6-15.3,28.3-39.2s4.5-33.6-9.5-44.2s-28.1-9.8-40-3.7s-9.6,29.6-7.7,48 S134.7,201.8,146.6,202.1z"/>
	<path class="st2" d="M197.6,218.8c12.4,0.3,28.9-10.8,30-42.7s1.8-39-10.4-43.7s-30-7.4-41.7-3.7s-8.2,35.4-6.2,53.6 S185.2,218.5,197.6,218.8z"/>
	<path class="st3" d="M260.4,228.2c15.5-0.8,25-12.5,25-46.1s2.8-41.5-10-42.9s-28.8-2.4-40.6,0s-11.5,29.8-8.3,53.1 S244.9,229,260.4,228.2z"/>
	<path class="st4" d="M215.7,209c0,5.9-8.1,9.8-18,9.8s-21.6-10.8-21.6-16.7s11.8-8,21.6-6.4C211.5,198,215.7,203.2,215.7,209z"/>
</svg> 
