<svg xmlns="http://www.w3.org/2000/svg" width="571.884" height="228.375" viewBox="0 0 571.884 228.375">
	<style type="text/css">
		.st0{fill:#FFFFFF;stroke:#919191;}
	</style>
	<path id="Path_72" class="st0" d="M545.1,124.5c-12.5-0.4-20.8-18.6-20.8-29.3s3.8-22.4,14.6-25.2s15.5-2.7,22.4,5.6 s5.4,16.1,3.2,26.3S557.6,125,545.1,124.5z"/>
	<path id="Path_134" class="st0" d="M27.3,124.5c12.5-0.4,20.8-18.6,20.8-29.3S44.3,72.8,33.5,70S18,67.4,11.1,75.7S5.7,91.9,7.8,102 S14.8,125,27.3,124.5z"/>
	<path id="Path_73" class="st0" d="M511.6,155.5c-15.2,0.5-25.7-20.9-25.7-34.7s5.4-32,18.5-35.7s20.7-3,28,6.5s8.9,19,6.1,33.2 S526.8,155,511.6,155.5z"/>
	<path id="Path_135" class="st0" d="M60.8,155.5c15.2,0.5,25.7-20.9,25.7-34.7s-5.4-32-18.5-35.7s-20.7-3-28,6.5s-8.9,19-6.1,33.2 S45.6,155,60.8,155.5z"/>
	<path id="Path_77" class="st0" d="M471.9,183.5c-11.9,0.3-27.1-14.3-27.9-37.1s1.3-25.4,12.8-37.8s22.6-10,31.8,0s12.9,20.2,11,37.8 S483.8,183.1,471.9,183.5z"/>
	<path id="Path_136" class="st0" d="M98.9,183.5c11.9,0.3,27.1-14.3,27.8-37.1s-1.3-25.4-12.8-37.8s-22.6-10-31.8,0 s-12.9,20.2-11,37.8S87,183.1,98.9,183.5z"/>
	<path id="Path_123" class="st0" d="M551.7,0c-12,0.1-23.9,25.7-25,43s1.3,19.7,6.6,26.7s12.8,7.1,20.8,3.5s17.8-22.2,16.6-38.1 S563.8-0.1,551.7,0z"/>
	<path id="Path_138" class="st0" d="M19.2,0c12,0.1,23.9,25.7,25,43s-1.3,19.7-6.6,26.7s-12.8,7.1-20.8,3.5S-1.1,50.9,0.1,35.1 S7.1-0.1,19.2,0z"/>
	<path id="Path_124" class="st0" d="M519.6,6.5c-12.9,0.1-25.7,31.9-26.9,53.3s1.4,24.4,7.1,33.1s13.7,8.8,22.3,4.3 S541.3,69.7,540,50S532.5,6.4,519.6,6.5z"/>
	<path id="Path_137" class="st0" d="M51.3,6.5C64.2,6.6,77,38.4,78.2,59.8S76.7,84.2,71,93s-13.7,8.8-22.3,4.3S29.5,69.7,30.8,50 S38.4,6.4,51.3,6.5z"/>
	<path id="Path_78" class="st0" d="M424.8,201.3c-11.9,0.4-27.6-15.3-28.3-39.2s-4.5-33.6,9.5-44.2s28.1-9.8,40-3.7s9.6,29.6,7.7,48 S436.7,200.9,424.8,201.3z"/>
	<path id="Path_129" class="st0" d="M146.1,201.3c11.9,0.4,27.6-15.3,28.3-39.2s4.5-33.6-9.5-44.2s-28.1-9.8-40-3.7s-9.6,29.6-7.7,48 S134.1,200.9,146.1,201.3z"/>
	<path id="Path_125" class="st0" d="M469.4,14.7c-14.9-1.4-31.8,24-33.4,51.1s-0.1,36.7,9.6,44.6s21.2,13.5,31.3,8.2 s26.3-32.8,24.2-60.3S484.2,16.1,469.4,14.7z"/>
	<path id="Path_133" class="st0" d="M101.5,14.7c14.9-1.4,31.8,24,33.4,51.1s0.1,36.7-9.6,44.6S104,124,94,118.7S67.7,86,69.8,58.4 S86.6,16.1,101.5,14.7z"/>
	<path id="Path_80" class="st0" d="M373.7,217.9c-12.4,0.3-28.9-10.8-30-42.7s-1.8-39,10.4-43.7s30-7.4,41.7-3.7 c11.7,3.7,8.2,35.4,6.2,53.6S386.1,217.6,373.7,217.9z"/>
	<path id="Path_130" class="st0" d="M197.1,217.9c12.4,0.3,28.9-10.8,30-42.7s1.8-39-10.4-43.7s-30-7.4-41.7-3.7 c-11.7,3.7-8.2,35.4-6.2,53.6S184.7,217.6,197.1,217.9z"/>
	<path id="Path_126" class="st0" d="M411.7,22.1c-14.9,0.1-32.6,23.7-34.2,54.1s-5.7,43.7,8.9,51.6s38.5,6,48.3,0s9.4-42.9,6.7-60 S426.6,22,411.7,22.1z"/>
	<path id="Path_131" class="st0" d="M159.1,22.1c14.9,0.1,32.6,23.7,34.2,54.1s5.7,43.7-8.9,51.6s-38.5,6-48.3,0s-9.4-42.9-6.7-60 C132.1,50.7,144.3,22,159.1,22.1z"/>
	<path id="Path_86" class="st0" d="M310.9,227.3c-15.5-0.8-25-12.5-25-46.1s-2.8-41.5,10-42.9s28.8-2.4,40.6,0s11.5,29.8,8.3,53.1 S326.4,228.2,310.9,227.3z"/>
	<path id="Path_128" class="st0" d="M259.9,227.3c15.5-0.8,25-12.5,25-46.1s2.8-41.5-10-42.9s-28.8-2.4-40.6,0s-11.5,29.8-8.3,53.1 S244.4,228.2,259.9,227.3z"/>
	<path id="Path_127" class="st0" d="M336.3,22.5c-20.7,0.7-48.1,12.2-49.5,60.1s-2.6,58.3,18,61.8s49.8,4.7,63.5-4.5 s14.1-46.9,9.8-69.5S356.9,21.8,336.3,22.5z"/>
	<path id="Path_132" class="st0" d="M236.1,22.5c20.7,0.7,48.1,12.2,49.5,60.1s0.6,58.7-18,61.8s-49.8,4.7-63.5-4.5 S190,93,194.3,70.4S215.5,21.8,236.1,22.5z"/>
</svg>
