<svg xmlns="http://www.w3.org/2000/svg" viewBox="0 0 640 640">
    <defs><style>.a{fill:none;stroke:#000;stroke-miterlimit:10;}</style></defs>
    <path class="a" d="M272.79,330.71a37.61,37.61,0,0,1-36.11-27,152.84,152.84,0,0,1-4.79-52.27c2.1-23.55,17.19-35.06,38.92-32,17.86,2.53,19.92,15.36,30.64,15.36s16.84-24.77,45.94-15.13c27.4,9.07,27.24,39.19,20.14,72.16-2.9,13.49-6.36,23.54-11,30.32-5,7.19-26.12,8.72-34.67,8.72C309.21,330.94,285.41,330.71,272.79,330.71Z"/><path class="a" d="M188.51,449c-15.09-.05-27.31-39.57-30.89-72.39-2.86-26.13-1.14-49.85-5.5-53.42-5.52-4.53-10.35-11.52-13.54-22.35-8.87-30.15-5.87-66.76,11.21-77.54,15-9.49,38.46-9.37,60.62,11,21.28,19.57,21.61,35,20.67,59.86-.62,16.24-7.48,27.72-15.52,31.53C208.57,329.08,206.25,449.1,188.51,449Z"/><path class="a" d="M397.9,214.32c26.61-5.3,27.46,13.3,43.9,13.3,17.31,0,14.63-20.15,47.89-12.64,35.56,8,23.93,55.08,19.62,72.16-4.84,19.15-10.31,20.19-12.85,37.15-3,19.91,5.91,55.49,3.18,80.59-2.88,26.52-13.43,63.31-28,68.42-6.51,2.29-8.23-51.23-6.87-64.53,1.33-13,3.67-39.24-20.47-39.24-24.74,0-19.79,34.12-19.11,44.3.77,11.67,4,60.12-6.29,60.12-11.76,0-29.61-46.74-31.41-70.17-1.79-23.27,1.21-58,.41-78.31-.67-16.7-8.89-26-12.75-41.21C368.58,258.24,368.28,220.21,397.9,214.32Z"/><path class="a" d="M101.69,323.31c7.32,0,12.77,1.08,28.35,1.08,6.82,0,18.46-2.25,24.22.49,4.78,2.28,9.92,5.27,17,6.06,10.5,1.17,26.22.32,38.52-3.34,7.37-2.19,9.89-3.67,16.74-4.18,9.22-.68,21.3-.2,30.2,4,7.62,3.56,19.39,2.93,35.86,2.93,13.81,0,26.72.3,37.14.05,6.64-.16,12.76-.56,18.62-2.54s7-4.29,20-4.15c22.34.25,41.85,9,75.17,9,32.59,0,52.14-10.38,70.48-11s17.69,0,24.34,0"/><path class="a" d="M303.27,358.1H270.38c-4.92,0-6-1.71-6-5.25V337.5c0-6,3.87-6.56,8.2-6.56H334c4.33,0,8.2.6,8.2,6.56v15.35c0,3.54-1.1,5.25-6,5.25Z"/><path class="a" d="M276.52,358.1c.79,14.26,7.82,90.47,9.76,103.46,1.42,9.44,5.74,18.69,17,18.69s15.58-9.25,17-18.69c1.95-13,9-89.2,9.77-103.46"/><path class="a" d="M328.88,373.67c-17.5,9.37-31.2,11.7-50.4,9.1"/><path class="a" d="M326.42,398.19c-17.5,9.36-26.69,8.68-45.91,7.08"/><path class="a" d="M324.88,423c-13.56,6.53-23.67,8.13-42.07,6"/><path class="a" d="M321.69,446.22c-13.44,5.94-19,6.62-36.54,4.63"/>
</svg>