<svg xmlns="http://www.w3.org/2000/svg" viewBox="0 0 640 640">
<defs><style>.a{fill:none;stroke:#000;stroke-miterlimit:10;}</style></defs>
<rect class="a" x="215.54" y="271.26" width="20" height="16"/><rect class="a" x="245.54" y="271.26" width="20" height="16"/><rect class="a" x="275.54" y="271.26" width="20" height="16"/><rect class="a" x="305.54" y="271.26" width="20" height="16"/><rect class="a" x="335.54" y="271.26" width="20" height="16"/><rect class="a" x="365.54" y="271.26" width="20" height="16"/><rect class="a" x="395.54" y="271.26" width="20" height="16"/><rect class="a" x="215.54" y="297.26" width="20" height="16"/><rect class="a" x="245.54" y="297.26" width="20" height="16"/><rect class="a" x="275.54" y="297.26" width="20" height="16"/><rect class="a" x="305.54" y="297.26" width="20" height="16"/><rect class="a" x="335.54" y="297.26" width="20" height="16"/><rect class="a" x="365.54" y="297.26" width="20" height="16"/><rect class="a" x="395.54" y="297.26" width="20" height="16"/><rect class="a" x="215.54" y="323.26" width="20" height="16"/><rect class="a" x="245.54" y="323.26" width="20" height="16"/><rect class="a" x="275.54" y="323.26" width="20" height="16"/><rect class="a" x="305.54" y="323.26" width="20" height="16"/><rect class="a" x="335.54" y="323.26" width="20" height="16"/><rect class="a" x="365.54" y="323.26" width="20" height="16"/><rect class="a" x="395.54" y="323.26" width="20" height="16"/><rect class="a" x="215.54" y="349.26" width="20" height="16"/><rect class="a" x="245.54" y="349.26" width="20" height="16"/><rect class="a" x="275.54" y="349.26" width="20" height="16"/><rect class="a" x="305.54" y="349.26" width="20" height="16"/><rect class="a" x="335.54" y="349.26" width="20" height="16"/><rect class="a" x="365.54" y="349.26" width="20" height="16"/><rect class="a" x="395.54" y="349.26" width="20" height="16"/><rect class="a" x="215.54" y="375.26" width="20" height="16"/><rect class="a" x="245.54" y="375.26" width="20" height="16"/><rect class="a" x="275.54" y="375.26" width="20" height="16"/><rect class="a" x="305.54" y="375.26" width="20" height="16"/><rect class="a" x="335.54" y="375.26" width="20" height="16"/><rect class="a" x="365.54" y="375.26" width="20" height="16"/><rect class="a" x="395.54" y="375.26" width="20" height="16"/><rect class="a" x="215.54" y="401.26" width="20" height="16"/><rect class="a" x="245.54" y="401.26" width="20" height="16"/><rect class="a" x="275.54" y="401.26" width="20" height="16"/><rect class="a" x="305.54" y="401.26" width="20" height="16"/><rect class="a" x="335.54" y="401.26" width="20" height="16"/><rect class="a" x="365.54" y="401.26" width="20" height="16"/><rect class="a" x="395.54" y="401.26" width="20" height="16"/><rect class="a" x="235" y="182.03" width="20" height="40.12"/><rect class="a" x="385" y="182.03" width="20" height="40.12"/><path class="a" d="M445.9,221.44V422.69A17.28,17.28,0,0,1,428.62,440H202.45a17.28,17.28,0,0,1-17.28-17.28V221.44a17.28,17.28,0,0,1,17.28-17.28H235v18h20v-18H385v18h20v-18h23.62A17.28,17.28,0,0,1,445.9,221.44Z"/><line class="a" x1="185.17" y1="239.56" x2="445.9" y2="239.56"/><line class="a" x1="185.17" y1="249.75" x2="445.9" y2="249.75"/>
</svg>