<!-- <?xml version="1.0" encoding="utf-8"?> -->
<svg version="1.1" xmlns="http://www.w3.org/2000/svg" xmlns:xlink="http://www.w3.org/1999/xlink" viewBox="0 0 554 304" xml:space="preserve">
<style type="text/css">
	.st0{fill:#FFEDEC;stroke:#9D9D9C;stroke-miterlimit:10;}
	.st1{fill:#FFFFFF;stroke:#9D9D9C;stroke-miterlimit:10;}
</style>
<path class="st0" d="M504.6,119.7c12.9-12.9,21.3-39.5,29.7-58.1s20.4-53.2-2.2-53.2S483.8,43,462.1,43s-51-41.7-86.5-41.7
	s-75.6,35-98.6,35s-63.1-35-98.6-35S113.7,43,91.9,43S44.5,8.4,21.9,8.4S11.2,43,19.7,61.6s16.8,45.2,29.7,58.1"/>
<path class="st0" d="M496.6,136c12.9,13,29.3,32.3,29.3,53.1s-8.9,42.1-25.7,59s-61.2,41-79.8,47.6c-18.9,6.6-60.2,7.3-79.8,3
	c-20-4.4-48.6-5.8-63.8-5.8s-43.5,1.4-63.4,5.8c-19.6,4.3-61,3.7-79.8-3c-18.6-6.5-63-30.7-79.8-47.6s-25.7-38.1-25.7-59
	S44.4,149,57.4,136"/>
<path class="st1" d="M153.8,164.4c-4.1-6.1-19.6-7-26.9-4.9s-7.3,13-6.8,24.5c0.5,13-0.1,18.5,7.6,26.5s22,5.3,25.3-3.8
	c1.3-3.6,3-13.9,3.4-23.7C156.7,175.2,156.1,167.8,153.8,164.4z"/>
<path class="st1" d="M120.2,165.8c-0.3-5.1,1.3-13.2-7-16.5c-7.8-3.1-22.9-2-27.1,4.5c-3.7,5.8-3.1,26,2.3,35.9
	c4.2,7.6,13.7,14.1,22.3,11.1C119.9,197.6,120.6,173,120.2,165.8z"/>
<path class="st1" d="M81.7,145.3c-3.5-7.4-10.1-6-17.3-4.8s-8.9,8.9-8.6,18c0.2,9.5,6.4,17.8,10,20.7s15.4,6.2,17.4-8.5
	C84.7,159.5,84.8,151.8,81.7,145.3z"/>
<path class="st1" d="M167.4,166.9c-6.7,1.1-10.1,4.6-10.9,12.3c-0.7,9.2-0.7,18.5,0.1,27.7c0.8,8.5,10.4,19.6,22.5,19.6
	c10.6,0,13.7-10.5,15-18.6c1.3-7.8,1.7-19.1,1.7-26.6s-3.8-11.9-9.8-13.2S174.1,165.8,167.4,166.9z"/>
<path class="st1" d="M203,170c-7.4,3.2-7,8.1-7,15.2s0,16.9,0.7,24s7.8,22.4,19.1,22.4c10.3,0,16.7-11.5,18-19.6
	c1.2-8.4,1.8-16.8,1.8-25.3c0-7.5-0.1-12.5-5.6-14.8C223.6,169.2,209.6,167.1,203,170z"/>
<path class="st1" d="M246,173.3c-6.9,1.1-9.5,7.6-9.7,15.8c-0.2,6.8,0.8,19,1.4,25.6c0.7,7.1,10.1,21.7,20.3,21.7
	c9.2,0,16.5-10.2,17.9-18.3c1.4-7.8,1.1-19.1,1.1-26.6s-0.2-13.8-5.9-16.8C265.5,171.8,252.9,172.3,246,173.3z"/>
<path class="st1" d="M400.2,164.4c4.1-6.1,19.6-7,26.9-4.9s7.3,13,6.8,24.5c-0.5,13,0.1,18.5-7.6,26.5s-22,5.3-25.3-3.8
	c-1.3-3.6-3-13.9-3.4-23.7C397.3,175.2,397.9,167.8,400.2,164.4z"/>
<path class="st1" d="M433.8,165.8c0.3-5.1-1.3-13.2,7-16.5c7.8-3.1,22.9-2,27.1,4.5c3.7,5.8,3.1,26-2.3,35.9
	c-4.2,7.6-13.7,14.1-22.3,11.1C434.1,197.6,433.4,173,433.8,165.8z"/>
<path class="st1" d="M472.3,145.3c3.5-7.4,10.1-6,17.3-4.8s8.9,8.9,8.6,18c-0.2,9.5-6.4,17.8-10,20.7s-15.4,6.2-17.4-8.5
	C469.3,159.5,469.2,151.8,472.3,145.3z"/>
<path class="st1" d="M386.5,166.9c6.7,1.1,10.1,4.6,10.9,12.3c0.7,9.2,0.7,18.5-0.1,27.7c-0.8,8.5-10.4,19.6-22.5,19.6
	c-10.6,0-13.7-10.5-15-18.6c-1.3-7.8-1.7-19.1-1.7-26.6s3.9-11.9,9.9-13.2S379.9,165.8,386.5,166.9z"/>
<path class="st1" d="M351,170c7.5,3.2,7,8.1,7,15.2s0,16.9-0.7,24s-7.8,22.4-19.1,22.4c-10.3,0-16.7-11.5-18-19.6
	c-1.2-8.4-1.8-16.8-1.8-25.3c0-7.5,0.1-12.5,5.6-14.8C330.4,169.2,344.4,167.1,351,170z"/>
<path class="st1" d="M308,173.3c6.9,1.1,9.5,7.6,9.7,15.8c0.2,6.8-0.8,19-1.4,25.6c-0.7,7.1-10.1,21.7-20.3,21.7
	c-9.2,0-16.5-10.2-17.9-18.3c-1.4-7.8-1.1-19.1-1.1-26.6s0.2-13.8,5.9-16.8C288.5,171.8,301.1,172.3,308,173.3z"/>
<path class="st1" d="M178.8,91.3c-12.4,0-22,17.1-22,32.1c0,13.8-0.5,21.2-0.4,29.3c0.1,11.2,4.1,17.4,12.9,20
	c8.5,2.5,19.2,4.9,27.7,2.5c7.3-2.1,11.1-6.1,11.1-19.7c0-12.1,0.2-17.9,0.2-29.9C208.3,109,195,91.3,178.8,91.3z"/>
<path class="st1" d="M132.5,89.2c-11.9-3.5-21.8,3.8-21.8,19.2c0,13.7,0.8,26.2,1.7,34.1c1,9.7,1.2,17.8,14.6,22.7
	c5.2,1.9,8.2,2,16.4,1.4c9.1-0.7,11.6-5,12.2-13.6c0.8-9.3,1.6-25.1,0-37.1C153.4,99.8,146.7,93.3,132.5,89.2z"/>
<path class="st1" d="M85.8,90.5c-10-2-13.8,8.3-13.3,20.6c0.5,11.5,1.6,21.7,3.2,28c2,7.9,4,13.3,10.2,15.5
	c4.3,1.5,7.7,2.2,14.4,1.4c6.2-0.8,10.4-2.9,11-9.9c0.5-9.2,0.1-18.4-1.3-27.5C108.1,105.4,101.7,93.7,85.8,90.5z"/>
<path class="st1" d="M61.5,99.1c-9.4,0-12.4,10.8-12.1,20.3c0.4,8.8,0,18.5,6.3,25.4c2.4,2.6,6,4.2,11.2,3.5c4.7-0.6,8.5-4.9,7.4-16
	C73.1,120.2,72.4,99.1,61.5,99.1z"/>
<path class="st1" d="M243.6,90.3c-15.5,0-35.3,14.7-35.3,36.6c0,13.7-0.2,26.7-0.2,30.1c0,9,4.9,19.3,14.5,21.4
	c10.7,2.3,27.2,4.6,36.5,2.4c8.6-2,17.7-4.7,17.7-18.2c0-12.1,0.2-22.4,0.2-34.5C277,111.5,264.6,90.3,243.6,90.3z"/>
<path class="st1" d="M375.2,91.3c12.4,0,22,17.1,22,32.1c0,13.8,0.5,21.2,0.4,29.3c-0.1,11.2-4.1,17.4-12.9,20
	c-8.5,2.5-19.2,4.9-27.7,2.5c-7.3-2.1-11.1-6.1-11.1-19.7c0-12.1-0.2-17.9-0.2-29.9C345.7,109,359,91.3,375.2,91.3z"/>
<path class="st1" d="M421.5,89.2c11.9-3.5,21.8,3.8,21.8,19.2c0,13.7-0.8,26.2-1.7,34.1c-1,9.7-1.2,17.8-14.6,22.7
	c-5.2,1.9-8.2,2-16.4,1.4c-9.1-0.7-11.6-5-12.2-13.6c-0.8-9.3-1.6-25.1,0-37.1C400.6,99.8,407.3,93.3,421.5,89.2z"/>
<path class="st1" d="M468.2,90.5c10-2,13.9,8.3,13.4,20.6c-0.5,11.5-1.6,21.7-3.2,28c-2,7.9-4,13.3-10.2,15.5
	c-4.3,1.5-7.7,2.2-14.4,1.4c-6.2-0.8-10.4-2.9-11-9.9c-0.5-9.2-0.1-18.4,1.3-27.5C445.9,105.4,452.3,93.7,468.2,90.5z"/>
<path class="st1" d="M492.4,99.1c9.5,0,12.5,10.8,12.1,20.3c-0.4,8.8,0,18.5-6.3,25.4c-2.4,2.6-6,4.2-11.2,3.5
	c-4.7-0.6-8.5-4.9-7.4-16C480.9,120.2,481.6,99.1,492.4,99.1z"/>
<path class="st1" d="M310.4,90.3c15.5,0,35.3,14.7,35.3,36.6c0,13.7,0.2,26.7,0.2,30.1c0,9-4.9,19.3-14.5,21.4
	c-10.7,2.3-27.2,4.6-36.5,2.4c-8.6-2-17.7-4.7-17.7-18.2c0-12.1-0.2-22.4-0.2-34.5C277,111.5,289.4,90.3,310.4,90.3z"/>
</svg>
