<svg xmlns="http://www.w3.org/2000/svg" viewBox="0 0 640 640">
<defs><style>.a{fill:none;stroke:#000;stroke-miterlimit:10;}</style></defs>
<path class="a" d="M386.53,307.28c-4.84,19.16-10.22,23.57-11.22,45.52C374.51,370.41,365,397.74,352,405c-10.08,5.65-11.4-12.32-10-25.61,1.33-13-3.34-30.61-20.34-31.29-17.85,1.36-20.61,21-18.51,31,2.79,13.29-.46,30.32-10.31,27.27-9.64-3-25.82-33.44-27.39-52.62-1.88-22.88-9.8-32.2-14-49.33-4.67-18.88-7-50.92,12.07-64.67l4.13,8.06,11.7,22.85,2.73-1.28-9.9-23.47-3.81-9a35.45,35.45,0,0,1,6.81-2.41c24.35-6,27.45,13.3,43.89,13.3,17.31,0,15.82-19.43,47.89-12.64C402.58,242.68,390.84,290.2,386.53,307.28Z"/><polygon class="a" points="207.9 219.5 155.99 219.5 155.99 179.47 189.22 179.47 207.9 219.5"/><polygon class="a" points="295.35 195.91 258.33 213.17 251.5 216.36 214.48 233.62 207.9 219.5 189.22 179.46 185.88 172.29 266.75 134.58 295.35 195.91"/><polygon class="a" points="282.03 269.36 279.3 270.64 267.6 247.79 263.47 239.73 251.5 216.36 258.33 213.17 268.32 236.87 272.13 245.89 282.03 269.36"/>
</svg>