<svg xmlns="http://www.w3.org/2000/svg" viewBox="0 0 640 640">
<defs><style>.a{fill:none;stroke:#000;stroke-miterlimit:10;}</style></defs>
<path class="a" d="M386.53,307.28c-4.84,19.16-10.22,23.57-11.22,45.52C374.51,370.41,365,397.74,352,405c-10.08,5.65-11.4-12.32-10-25.61,1.33-13-3.34-30.61-20.34-31.29-17.85,1.36-20.61,21-18.51,31,2.79,13.29-.46,30.32-10.31,27.27-9.64-3-25.82-33.44-27.39-52.62-1.88-22.88-9.8-32.2-14-49.33-4.79-19.38-7.14-52.61,13.62-65.71C288.75,293.1,292.1,382.3,292.1,382.3c-1.72-76.84-15-122.52-24.12-145.26a35.23,35.23,0,0,1,7.15-2.58c24.35-6,27.45,13.3,43.89,13.3,17.31,0,15.82-19.43,47.89-12.64C402.58,242.68,390.84,290.2,386.53,307.28Z"/><path class="a" d="M260.52,218.41l-1.35.63-3.65,1.7-4.05,1.89a15.29,15.29,0,0,1-20.32-7.4L212.6,175.45A15.3,15.3,0,0,1,220,155.12l9-4.22a15.29,15.29,0,0,1,20.32,7.4l18.56,39.79A15.29,15.29,0,0,1,260.52,218.41Z"/><path class="a" d="M292.1,382.3S288.75,293.1,265,238.69a122.49,122.49,0,0,0-9.5-17.95l3.65-1.7c.43.64,4.08,6.26,8.81,18C277.15,259.78,290.38,305.46,292.1,382.3Z"/><path class="a" d="M259.17,219l0-.06"/>
</svg>