<svg xmlns="http://www.w3.org/2000/svg" viewBox="0 0 640 640">
<defs><style>.a{fill:none;stroke:#000;stroke-miterlimit:10;}</style></defs>
<path class="a" d="M386.53,307.28c-4.84,19.16-10.22,23.57-11.22,45.52C374.51,370.41,365,397.74,352,405c-10.08,5.65-11.4-12.32-10-25.61,1.33-13-3.34-30.61-20.34-31.29-17.85,1.36-20.61,21-18.51,31,2.79,13.29-.46,30.32-10.31,27.27-9.64-3-25.82-33.44-27.39-52.62-1.88-22.88-9.8-32.2-14-49.33-3.6-14.56-5.82-36.93,2.1-52.71a31.62,31.62,0,0,1,20.67-17l1-.24c24.35-6,27.45,13.3,43.89,13.3,17.31,0,15.82-19.43,47.89-12.64C402.58,242.68,390.84,290.2,386.53,307.28Z"/><path class="a" d="M275.66,240.9a13.7,13.7,0,0,1-22.16,10.79,31.62,31.62,0,0,1,20.67-17A13.6,13.6,0,0,1,275.66,240.9Z"/>
</svg>