<svg xmlns="http://www.w3.org/2000/svg" viewBox="0 0 640 640">
<defs><style>.a{fill:none;stroke:#000;stroke-miterlimit:10;}</style></defs>
<path class="a" d="M275.13,234.46c24.35-6,27.45,13.3,43.89,13.3,17.31,0,15.82-19.43,47.89-12.64,35.67,7.56,23.93,55.08,19.62,72.16-4.84,19.16-10.22,23.57-11.22,45.52C374.51,370.41,365,397.74,352,405c-10.08,5.65-11.4-12.32-10-25.61,1.33-13-3.34-30.61-20.34-31.29-17.85,1.36-20.61,21-18.51,31,2.79,13.29-.46,30.32-10.31,27.27-9.64-3-25.82-33.44-27.39-52.62-1.88-22.88-9.8-32.2-14-49.33C245.94,282.31,243.65,242.23,275.13,234.46Z"/><rect class="a" x="234.93" y="164.37" width="23.32" height="71.69" transform="translate(-61.51 122.97) rotate(-25)"/><line class="a" x1="206.46" y1="179.38" x2="256.43" y2="156.08"/><line class="a" x1="222.46" y1="148.46" x2="231.45" y2="167.73"/><line class="a" x1="208.52" y1="154.97" x2="236.41" y2="141.96"/><line class="a" x1="261.99" y1="233.24" x2="288.2" y2="289.43"/>
</svg>