<svg xmlns="http://www.w3.org/2000/svg" viewBox="0 0 640 640">
    <defs><style>.a{fill:none;stroke:#000;stroke-miterlimit:10;}</style></defs>
    <path class="a" d="M195.23,540.89l133-127.7s7.32-13.3,20.62-17.29,47.88-15.3,47.88-15.3"/><line class="a" x1="231.15" y1="540.89" x2="389.26" y2="405.62"/><line class="a" x1="465.92" y1="339.9" x2="465.92" y2="355.9"/><line class="a" x1="473.92" y1="363.74" x2="489.92" y2="363.74"/><line class="a" x1="441.92" y1="363.74" x2="457.92" y2="363.74"/><line class="a" x1="465.92" y1="371.9" x2="465.92" y2="387.9"/><line class="a" x1="486.55" y1="407.21" x2="486.55" y2="423.21"/><line class="a" x1="494.55" y1="431.05" x2="510.55" y2="431.05"/><line class="a" x1="462.55" y1="431.05" x2="478.55" y2="431.05"/><line class="a" x1="486.55" y1="439.21" x2="486.55" y2="455.21"/><line class="a" x1="406.52" y1="441.01" x2="406.52" y2="457.01"/><line class="a" x1="414.52" y1="464.85" x2="430.52" y2="464.85"/><line class="a" x1="382.52" y1="464.85" x2="398.52" y2="464.85"/><line class="a" x1="406.52" y1="473.01" x2="406.52" y2="489.01"/><path class="a" d="M187.48,202.58c-15.25,0-31.64,13.89-36.07,35.17-3.45,16.53-2.89,35.81-2.8,45.74.13,13.76,6.35,27.31,16.86,31.44,7.49,2.94,30.43,6.76,41.24,4.65,9.18-1.79,19.85-11.88,19.85-28.49,0-14.84.27-21.92.27-36.76C226.83,233.88,211.2,202.58,187.48,202.58Z"/><path class="a" d="M131.39,196.34c-11.32-6.63-30.8,8.82-34.79,26.55a149.34,149.34,0,0,0-2.85,42.4c.91,11.9,3.3,28.72,12.36,32.26,6.41,2.49,13.17,5,23.28,4,9.31-1,19.19-3.44,19.19-14,0-10-.59-27.37,1.51-44.66C152.16,225.82,142,202.58,131.39,196.34Z"/><path class="a" d="M273.94,202.58c-19.1,0-42.68,20.28-45.89,44.78-2.22,16.93-1.22,42.06-1.22,46.28,0,11,10.75,28.07,22.5,30.63,13.14,2.86,39.36,2.86,50.79.21,10.52-2.44,19.49-10,19.49-26.56,0-14.84.22-27.51.22-42.35C319.83,235.12,299.75,202.58,273.94,202.58Z"/><path class="a" d="M462.51,376.85c-.32,11-5.45,25.14-17.2,27.7-13.14,2.86-44.61,3.73-56.05,1.07-10.51-2.44-19.49-9.94-19.49-26.55,0-14.84-.21-29.51-.21-44.35a49.25,49.25,0,0,1,.77-8.37c3.42-19.85,18.31-44.82,43-45.27h.68c22,0,37.87,16.73,43.6,37.73a64.76,64.76,0,0,1,1.62,7.64C461.57,341.73,462.82,366.17,462.51,376.85Z"/><path class="a" d="M491.39,283.5c-.13,13.75-6.35,27.3-16.86,31.43-3.35,1.32-9.81,2.81-16.88,3.87-5.73-21-21.61-37.73-43.6-37.73h-.65c0-.71,0-1.41,0-2.1t0,0c-.05-4.8-.12-9.09-.16-14,0-3.18-.05-6.61-.05-10.61,0-20.44,15.63-51.74,39.35-51.74,15.25,0,31.64,13.88,36.07,35.16C492,254.28,491.48,273.57,491.39,283.5Z"/><path class="a" d="M508.61,196.34c11.32-6.63,30.8,8.82,34.79,26.55a149.34,149.34,0,0,1,2.85,42.4c-.91,11.9-3.3,28.72-12.36,32.26-6.41,2.49-13.17,5-23.28,4-9.31-1-19.19-3.44-19.19-14,0-10,.59-27.37-1.51-44.66C487.84,225.82,498,202.58,508.61,196.34Z"/><path class="a" d="M413.38,279s0,0,0,0c0,.71,0,1.42,0,2.1-24.73.45-39.62,25.42-43,45.27-11.47.36-23.61-.28-30.45-1.87-10.52-2.44-19.49-9.94-19.49-26.55,0-14.84-.22-27.51-.22-42.35,0-20.45,20.08-53,45.89-53,19.1,0,42.68,20.28,45.89,44.78.7,5.34,1.08,11.5,1.27,17.57C413.38,269.83,413.41,274.66,413.38,279Z"/>
</svg>