<svg xmlns="http://www.w3.org/2000/svg" viewBox="0 0 640 640">
    <defs><style>.a,.b{fill:none;stroke:#000;}.b{stroke-miterlimit:10;}</style></defs>
    <path class="a" d="M278,379.28C266,371.45,256.81,360.15,249.83,347c-22.32-41.94-22.25-102.55-22.25-128.46,0-41.1,7.5-56.32,34.68-60.26a219.53,219.53,0,0,1,31-1.62c12.22,0,25.85.7,39.9,1.81,13.57,1.06,27.43,2.66,37.88,4.34a48.66,48.66,0,0,1,24.5,10c10.08,8.31,14.53,24,14.09,51.27C409.06,258,407,347.37,359.42,379.28"/><ellipse class="a" cx="276.17" cy="264.34" rx="24.2" ry="69.57"/><rect class="b" x="206.6" y="412.55" width="223.82" height="54.44"/><polyline class="b" points="386.92 347.02 400.43 347.02 430.43 412.55 206.55 412.55 236.55 347.02 249.83 347.02"/>
</svg>