<!-- <?xml version="1.0" encoding="utf-8"?>
<svg version="1.1" id="Layer_1" xmlns="http://www.w3.org/2000/svg" xmlns:xlink="http://www.w3.org/1999/xlink" x="0px" y="0px"
	 viewBox="0 0 500 500" style="enable-background:new 0 0 500 500;" xml:space="preserve"> -->
<svg xmlns="http://www.w3.org/2000/svg" width="500" height="500" viewBox="0 0 500 500">
<style type="text/css">
	.st0{fill:none;stroke:#000000;stroke-width:1;}
	.st1{fill:none;stroke:#000000;stroke-width:1;stroke-miterlimit:10;}
</style>
	<path class="st0" d="M238.5,252.8c-11.8,34.8-11.4,66.2,4.8,100.7c17.3,37-17,96.9-6.3,121.4"/>
	<path class="st0" d="M243.3,240.2c0,0.1-0.1,0.2-0.1,0.3"/>
	<path class="st0" d="M237,474.9c-0.4-1.8-0.5-5.3-0.5-5.3c0.3-26.8,43.1-56.3,47.8-98.9c4.5-41.3,4-48.1,25.4-82.5"/>
	<path class="st0" d="M316.9,276.9c-0.1,0.1-0.1,0.2-0.2,0.3"/>
	<path class="st0" d="M176.6,289.4c5.4,36.2,3,44.5,29.5,74.3c29,32.5,17,82.3,31,111.2"/>
	<path class="st0" d="M174.9,278.8c0-0.1,0-0.2-0.1-0.3"/>
	<path class="st1" d="M250.1,246.7c0,3.4-4.7,6.1-10.6,6.1c-0.4,0-0.7,0-1,0c-5.3-0.3-9.5-2.9-9.5-6.1c0-1.7,1.2-4.3,3.2-6.5 c2.4,0.3,4.8,0.4,7.2,0.4c1.2,0,2.5,0,3.7-0.1c1.2-0.1,2.5-0.2,3.7-0.3C248.9,242.3,250.1,245,250.1,246.7z"/>
	<path class="st1" d="M176.6,289.4c-0.1,0-0.1,0-0.2,0c-5.7,1.1-10.9-0.7-11.5-4c-0.2-1.2,0-2.9,0.8-4.7c2.3-0.3,4.7-0.8,7-1.3 c0.8-0.2,1.5-0.4,2.2-0.6c2.4-0.7,4.8-1.5,7.1-2.5c1.9,1.6,3.3,3.6,3.6,5.1C186.2,284.7,182.2,288.3,176.6,289.4z"/>
	<path class="st1" d="M324.1,286.8c-1.1,3.2-6.5,4.3-12,2.4c-0.8-0.3-1.6-0.6-2.3-1c-4.1-2.1-6.6-5.5-5.6-8.2 c0.6-1.8,3.1-4.2,6.1-5.5c2.1,1,4.3,2,6.6,2.8c1.3,0.5,2.6,0.9,3.9,1.3c0.7,0.2,1.5,0.4,2.2,0.6h0 C324.3,281.9,324.7,285.1,324.1,286.8z"/>
	<path class="st1" d="M430.8,197.8c-16.2,56.3-64.2,92.2-107.9,81.3h0c-0.7-0.2-1.5-0.4-2.2-0.6c-1.3-0.4-2.6-0.8-3.9-1.3 c-2.3-0.8-4.5-1.7-6.6-2.8c-17-8.2-30-23.5-37.6-42.6c29.7-16.5,50.5-54.6,50.5-99c0-17-3.1-33.1-8.5-47.4 c20-14.7,43.4-20.6,65.7-14.2C424.7,83.9,447.3,140.5,430.8,197.8z"/>
	<path class="st1" d="M220.7,237.9c-8.6,17.7-21.9,31.5-38.8,38.4c-2.3,1-4.7,1.8-7.1,2.5c-0.7,0.2-1.5,0.4-2.2,0.6 c-2.3,0.6-4.7,1-7,1.3c-42.7,5.8-86.5-31.1-100.2-85.8C50.9,137.2,75.5,81.3,120.3,70.2c16.2-4,32.8-1.7,48,5.7 c-8,16.5-12.6,36-12.6,56.8C155.7,184,183.5,227,220.7,237.9z"/>
	<path class="st1" d="M323.1,132.8c0,44.4-20.8,82.5-50.5,99c-8,4.5-16.7,7.4-25.7,8.4c-1.2,0.2-2.5,0.3-3.7,0.3 c-1.2,0.1-2.5,0.1-3.7,0.1c-2.4,0-4.8-0.1-7.2-0.4c-3.9-0.4-7.8-1.2-11.5-2.3c-37.2-10.9-65-53.9-65-105.1 c0-20.9,4.6-40.3,12.6-56.8c14.8-30.6,41.1-51,71.2-51c33,0,61.6,24.7,75.2,60.5C320.1,99.7,323.1,115.8,323.1,132.8z"/>
</svg>
