<svg xmlns="http://www.w3.org/2000/svg" viewBox="0 0 640 640">
    <defs><style>.a{fill:none;stroke:#000;stroke-miterlimit:10;}</style></defs>
    <rect class="a" x="244.62" y="133.18" width="75.38" height="39.45" rx="19.73" transform="translate(-11.59 23.66) rotate(-4.7)"/><rect class="a" x="181.53" y="158.72" width="69.36" height="39.62" rx="19.81" transform="translate(-63.59 160.34) rotate(-35.83)"/><rect class="a" x="135.16" y="213.21" width="76.06" height="45.28" rx="22.64" transform="translate(-106.91 320.49) rotate(-70.52)"/><rect class="a" x="109.3" y="287.03" width="83.26" height="49.57" rx="24.79" transform="translate(-184.71 397.57) rotate(-78.5)"/><rect class="a" x="99.2" y="362.63" width="77.21" height="56.64" rx="26.11" transform="matrix(0.12, -0.99, 0.99, 0.12, -266.84, 480.94)"/><rect class="a" x="88.25" y="442.13" width="83.26" height="57.45" rx="27.47" transform="translate(-344.89 585.61) rotate(-88.17)"/><rect class="a" x="337.96" y="115.22" width="39.45" height="75.38" rx="19.73" transform="translate(175.97 496.86) rotate(-85.3)"/><rect class="a" x="403.99" y="143.85" width="39.62" height="69.36" rx="19.81" transform="translate(30.98 417.63) rotate(-54.17)"/><rect class="a" x="444.16" y="197.82" width="45.28" height="76.06" rx="22.64" transform="translate(-51.93 169.15) rotate(-19.48)"/><rect class="a" x="464.28" y="270.18" width="49.57" height="83.26" rx="24.79" transform="translate(-52.34 103.73) rotate(-11.5)"/><rect class="a" x="473.87" y="352.35" width="56.64" height="77.21" rx="26.11" transform="translate(-43.22 62.97) rotate(-6.88)"/><rect class="a" x="481.4" y="429.22" width="57.45" height="83.26" rx="27.47" transform="translate(-14.8 16.56) rotate(-1.83)"/><path class="a" d="M320,109.45c34.55,0,117.86,2,169.07,73.16,58.65,81.51,66.08,204.23,70,296.63,1.66,39.24-24.6,60.19-47.56,60.19-91.78,0-87.71-59.53-191.51-59.53s-99.73,59.53-191.51,59.53c-23,0-49.22-20.95-47.56-60.19,3.92-92.4,11.35-215.12,70-296.63C202.14,111.45,285.45,109.45,320,109.45Z"/>
</svg>