<svg xmlns="http://www.w3.org/2000/svg" viewBox="0 0 640 640">
    <defs><style>.a{fill:none;stroke:#000;stroke-miterlimit:10;}</style></defs>
    <path class="a" d="M199.26,264.53c-15.25,0-27.25,16.65-27,39.48.22,16.88-.61,26-.52,35.94.12,13.75,5,21.38,15.84,24.58,10.42,3.09,23.62,6.05,34,3.12,9-2.55,13.61-7.55,13.61-24.16,0-14.84.27-21.92.27-36.76C235.47,286.28,219.07,264.53,199.26,264.53Z"/><path class="a" d="M152.64,264.75c-12.15-4.95-29.95,2.28-33.94,20-3.7,16.47-1.13,32.3-.38,42.08.91,11.9,6.88,24.7,16,28.24,6.4,2.49,10,3.38,20.11,2.34,9.31-1,15.05-6.94,16.19-17.41,1.25-11.4.91-23,1-37.88C171.71,282.32,165.14,269.85,152.64,264.75Z"/><path class="a" d="M278.82,263.3c-19.09,0-43.35,18.11-43.35,44.93,0,16.88-.27,32.81-.27,37,0,11,8.4,25.08,20.15,27.64,13.14,2.86,32.34,5.52,43.77,2.87,10.52-2.44,20.49-6.95,20.49-23.56,0-14.84.22-27.51.22-42.35C319.83,289.41,304.64,263.3,278.82,263.3Z"/><path class="a" d="M440.74,264.53c15.25,0,27.25,16.65,27,39.48-.22,16.88.61,26,.52,35.94-.12,13.75-5,21.38-15.84,24.58-10.42,3.09-23.62,6.05-34,3.12-9-2.55-13.61-7.55-13.61-24.16,0-14.84-.27-21.92-.27-36.76C404.53,286.28,420.93,264.53,440.74,264.53Z"/><path class="a" d="M487.36,264.75c12.15-4.95,29.95,2.28,33.94,20,3.7,16.47,1.13,32.3.38,42.08-.91,11.9-6.88,24.7-15.95,28.24-6.4,2.49-10,3.38-20.11,2.34-9.31-1-15.05-6.94-16.19-17.41-1.25-11.4-.91-23-1-37.88C468.29,282.32,474.86,269.85,487.36,264.75Z"/><path class="a" d="M361.18,263.3c19.09,0,43.35,18.11,43.35,44.93,0,16.88.27,32.81.27,37,0,11-8.4,25.08-20.15,27.64-13.14,2.86-32.34,5.52-43.77,2.87-10.52-2.44-20.49-6.95-20.49-23.56,0-14.84-.22-27.51-.22-42.35C320.17,289.41,335.36,263.3,361.18,263.3Z"/><line class="a" x1="273.39" y1="179.4" x2="273.39" y2="161.57"/><line class="a" x1="282.16" y1="188.37" x2="299.99" y2="188.37"/><line class="a" x1="264.81" y1="188.37" x2="246.98" y2="188.37"/><line class="a" x1="273.39" y1="196.06" x2="273.39" y2="213.89"/><line class="a" x1="453.63" y1="430.97" x2="453.63" y2="413.14"/><line class="a" x1="462.4" y1="439.94" x2="480.24" y2="439.94"/><line class="a" x1="445.05" y1="439.94" x2="427.22" y2="439.94"/><line class="a" x1="453.63" y1="447.62" x2="453.63" y2="465.45"/><line class="a" x1="569.06" y1="252.69" x2="569.06" y2="234.86"/><line class="a" x1="577.83" y1="261.66" x2="595.66" y2="261.66"/><line class="a" x1="560.48" y1="261.66" x2="542.65" y2="261.66"/><line class="a" x1="569.06" y1="269.35" x2="569.06" y2="287.18"/><line class="a" x1="166.2" y1="418.03" x2="166.2" y2="400.2"/><line class="a" x1="174.97" y1="427" x2="192.8" y2="427"/><line class="a" x1="157.62" y1="427" x2="139.79" y2="427"/><line class="a" x1="166.2" y1="434.69" x2="166.2" y2="452.52"/><line class="a" x1="78.51" y1="245" x2="78.51" y2="227.17"/><line class="a" x1="87.28" y1="253.97" x2="105.11" y2="253.97"/><line class="a" x1="69.93" y1="253.97" x2="52.1" y2="253.97"/><line class="a" x1="78.51" y1="261.66" x2="78.51" y2="279.49"/>
</svg>