<svg xmlns="http://www.w3.org/2000/svg" viewBox="0 0 640 640">
<defs><style>.a{fill:none;stroke:#000;stroke-miterlimit:10;}</style></defs>
<path class="a" d="M316.9,434.07l-32.5,63.29H166.61V449.61A100.49,100.49,0,0,1,267.17,349.05h3.76l13.89,25.68Z"/><path class="a" d="M467.19,449.61v47.75H284.4l32.5-63.29,30.46-59.34,13.19-25.68h6.07A100.52,100.52,0,0,1,467.19,449.61Z"/><path class="a" d="M416.9,234.73c0,40-10,57.88-10,78.24v44.48a100,100,0,0,0-40.28-8.4H354.9v-31.7C370,303,379.76,280.29,379.76,254.73a92.54,92.54,0,0,0-10.7-43.87c-16.95-5.12-37.33-4.58-37.33-4.58,14.63,6,23.17,23.94,23.17,23.94-46.21,11.34-76.27-1.26-93.46-12.52a94.08,94.08,0,0,0-7.41,37c0,25.56,9.76,48.27,24.87,62.63v31.69H267.17a100.13,100.13,0,0,0-40.27,8.39V313c0-18-10-38.24-10-78.24,0-47.52,44.77-100,100-100,27.61,0,52.61,13.79,70.71,33.18S416.9,212.3,416.9,234.73Z"/><path class="a" d="M354.9,349.05h5.65l-13.19,25.68L316.9,434.07l-32.08-59.34-13.89-25.68h8V317.36C263.79,303,254,280.29,254,254.73a94.08,94.08,0,0,1,7.41-37c17.19,11.26,47.25,23.86,93.46,12.52,0,0-8.54-18-23.17-23.94,0,0,20.38-.54,37.33,4.58a92.54,92.54,0,0,1,10.7,43.87c0,25.56-9.75,48.27-24.86,62.62Z"/><line class="a" x1="368.31" y1="458.45" x2="414.31" y2="458.45"/>
</svg>